# xmcd
#
# Track frame offsets:
#	150
#	10910
#	18363
#	31386
#	43224
#	56014
#	69944
#	80160
#	93904
#	99196
#	111081
#	127349
#	141959
#	153509
#	170570
#	178190
#	198221
#	207154
#	223843
#	238347
#	255773
#	271892
#	286745
#	306128
#	316434
#	337927
#
# Disc length: 4681 seconds
#
# Revision: 0
# Processed by: cddbd v1.5.2PL0 Copyright (c) Steve Scherf et al.
# Submitted via: audiograbber 1.83.01
#
DISCID=7612471a
DTITLE=Johnny Cash - Johnny Cash At Madison Square Garden
DYEAR=1969
DGENRE=Country
TTITLE0=Johnny Cash - Big River
TTITLE1=Johnny Cash - I Still Miss Someone
TTITLE2=Johnny Cash - Five Feet High And Rising
TTITLE3=Johnny Cash - Pickin' Time
TTITLE4=Johnny Cash - Remember The Alamo
TTITLE5=Johnny Cash - Last Night I Had The Strangest Dream
TTITLE6=Johnny Cash - Wreck Of The Old 97
TTITLE7=Johnny Cash - The Long Black Veil
TTITLE8=Johnny Cash - The Wall
TTITLE9=Johnny Cash - Send A Picture Of Mother
TTITLE10=Johnny Cash - Folsom Prison Blues
TTITLE11=Johnny Cash - Blue Suede Shoes With Carl Perkins
TTITLE12=Johnny Cash - Flowers On The Wall With Statler Brothers
TTITLE13=Johnny Cash - Wildwood Flower With The Carter Family
TTITLE14=Johnny Cash - Worried Man Blues With The Carter Family
TTITLE15=Johnny Cash - A Boy Named Sue
TTITLE16=Johnny Cash - Cocaine Blues
TTITLE17=Johnny Cash - Jesus Was A Carpenter
TTITLE18=Johnny Cash - The Ballad Of Ira Hayes
TTITLE19=Johnny Cash - As Long As The Grass Shall Grow
TTITLE20=Johnny Cash - Sing A Travellin' Song
TTITLE21=Johnny Cash - He Turned The Water Into Wine
TTITLE22=Johnny Cash - Were You There (When They Crucified My Lord)
TTITLE23=Johnny Cash - Daddy Sang Bass
TTITLE24=Johnny Cash - Finale Medley: Do With Tommy Cash: The Carter Family: Th
TTITLE24=e Statler Brothers: Carl Perkins
TTITLE25=Johnny Cash - Suppertime
EXTD=
EXTT0=
EXTT1=
EXTT2=
EXTT3=
EXTT4=
EXTT5=
EXTT6=
EXTT7=
EXTT8=
EXTT9=
EXTT10=
EXTT11=
EXTT12=
EXTT13=
EXTT14=
EXTT15=
EXTT16=
EXTT17=
EXTT18=
EXTT19=
EXTT20=
EXTT21=
EXTT22=
EXTT23=
EXTT24=
EXTT25=
PLAYORDER=
